<svg xmlns="http://www.w3.org/2000/svg" version="1.1" xmlns:xlink="http://www.w3.org/1999/xlink" width="400" height="562"><svg width="400" height="562" viewBox="0 0 400 562" fill="none" xmlns="http://www.w3.org/2000/svg">
    <path d="M199.854 81C310.38 81 399.854 170.529 400 280.978C400 391.572 310.38 481.103 200 481.103C164.181 481.103 130.701 471.593 101.754 455.209V562C63.7424 548.688 29.2396 527.915 0 501.437V281.124C0.000132992 170.529 89.4736 81.0001 199.854 81ZM200.274 183.019C145.929 183.019 101.874 227.074 101.874 281.419C101.874 335.764 145.929 379.819 200.274 379.819C254.619 379.819 298.675 335.764 298.675 281.419C298.675 227.074 254.619 183.019 200.274 183.019Z" fill="#E1CAFC"></path>
    <path d="M200.146 481C310.526 481 400 391.471 400 280.876L400 60.5639C370.76 34.0855 336.257 13.3124 298.246 3.62117e-06L298.246 106.791C269.298 90.4069 235.819 80.8981 200 80.8981C89.6199 80.8981 1.117e-05 170.427 1.50173e-06 281.022C0.146191 391.471 89.6199 481 200.146 481ZM200.146 182.716C254.386 182.716 298.392 226.749 298.392 281.022C298.392 335.296 254.386 379.329 200.146 379.329C145.906 379.329 101.901 335.296 101.901 281.022C101.901 226.749 145.906 182.716 200.146 182.716Z" fill="#E1CAFC"></path>
</svg><style>@media (prefers-color-scheme: light) { :root { filter: none; } }
@media (prefers-color-scheme: dark) { :root { filter: none; } }
</style></svg>